<?xml version="1.0" standalone="no"?>
<!DOCTYPE svg PUBLIC "-//W3C//DTD SVG 20010904//EN"
 "http://www.w3.org/TR/2001/REC-SVG-20010904/DTD/svg10.dtd">
<svg version="1.0" xmlns="http://www.w3.org/2000/svg"
 width="668.000000pt" height="668.000000pt" viewBox="0 0 668.000000 668.000000"
 preserveAspectRatio="xMidYMid meet">
<metadata>
Created by potrace 1.14, written by Peter Selinger 2001-2017
</metadata>
<g transform="translate(0.000000,668.000000) scale(0.100000,-0.100000)"
fill="#000000" stroke="none">
<path d="M426 3363 c0 -1314 2 -2390 3 -2393 1 -4 1054 -5 1071 -1 3 0 5 730
5 1621 0 891 2 1620 5 1620 3 0 736 -731 1630 -1623 l1625 -1624 760 1 760 1
5 29 c3 17 4 1093 2 2393 l-2 2363 -540 0 -540 0 -458 -460 c-930 -937 -1152
-1162 -1152 -1169 0 -3 171 -176 379 -385 l379 -378 164 165 c90 91 281 285
426 432 l262 266 0 -1088 0 -1088 -1852 1853 -1853 1852 -540 0 -541 0 2
-2387z"/>
</g>
</svg>
